<svg width="69" height="68" viewBox="0 0 69 68" fill="none" xmlns="http://www.w3.org/2000/svg">
<g filter="url(#filter0_d_151_162)">
<path d="M60.0044 12.7115H52.9814V12.5095C52.9814 8.87665 50.026 5.92118 46.3932 5.92118C42.7603 5.92118 39.8049 8.87665 39.8049 12.5095V12.7115H31.5571C28.8414 12.7115 26.6321 14.9209 26.6321 17.6365V23.2009H19.2458C17.4838 23.2009 15.9176 24.2562 15.2558 25.8893C15.2462 25.9133 15.2373 25.9375 15.2291 25.962L10.9681 38.8689C10.9294 38.8919 10.8801 38.9191 10.8187 38.9498C10.575 39.0714 10.1193 39.2568 9.33507 39.4484C8.09062 39.7499 6.9839 40.4616 6.19323 41.4688C5.40255 42.4759 4.97396 43.72 4.97651 45.0004V51.0987C4.97651 53.1406 6.63765 54.8018 8.67952 54.8018L13.9037 54.802C14.4553 57.7562 17.0514 59.9999 20.1632 59.9999C23.2749 59.9999 25.8709 57.7561 26.4226 54.8021L44.8472 54.8024C45.3989 57.7564 47.9949 59.9999 51.1066 59.9999C54.2181 59.9999 56.8141 57.7565 57.3659 54.8026L60.6836 54.8027C63.2232 54.8027 64.9294 53.0963 64.9294 50.5568V20.08C64.9294 13.4295 61.4851 12.7115 60.0044 12.7115ZM42.1486 12.5095C42.1486 10.169 44.0527 8.26493 46.3932 8.26493C48.7336 8.26493 50.6377 10.169 50.6377 12.5095V12.7115H42.1486V12.5095ZM17.4413 26.7379C17.591 26.3833 17.8422 26.0809 18.1632 25.8686C18.4842 25.6563 18.8609 25.5436 19.2457 25.5447H26.6319V38.8266H13.4502L17.4413 26.7379ZM20.1632 57.6562C17.9435 57.6562 16.1377 55.8504 16.1377 53.6307C16.1377 53.6033 16.1392 53.5762 16.1398 53.5488C16.1406 53.5069 16.1408 53.465 16.143 53.4234C16.1433 53.4168 16.1441 53.4104 16.1445 53.4038C16.2626 51.2894 18.02 49.6052 20.1632 49.6052C22.1026 49.6052 23.7262 50.9841 24.105 52.8129L24.1067 52.82C24.1194 52.882 24.1305 52.9445 24.1403 53.0076L24.1422 53.018C24.1492 53.0638 24.1544 53.1101 24.1598 53.1564C24.1622 53.1775 24.1656 53.1983 24.1677 53.2194C24.1714 53.2554 24.1734 53.2921 24.176 53.3285C24.1784 53.3602 24.1817 53.3916 24.1833 53.4235C24.185 53.4563 24.185 53.4896 24.1858 53.5226C24.1867 53.5586 24.1885 53.5944 24.1885 53.6306C24.1887 55.8504 22.3828 57.6562 20.1632 57.6562ZM51.1066 57.6562C48.8869 57.6562 47.081 55.8504 47.081 53.6307C47.081 53.5783 47.083 53.5263 47.085 53.4743C47.0856 53.4576 47.0855 53.4405 47.0863 53.4238C47.0883 53.3852 47.0921 53.3471 47.0951 53.3088C47.0975 53.2791 47.0989 53.2491 47.1019 53.2196C47.1032 53.207 47.1053 53.1947 47.1066 53.1823C47.1202 53.06 47.1386 52.939 47.163 52.8203C47.1637 52.8168 47.1646 52.8134 47.1654 52.8099C47.5455 50.9826 49.168 49.6053 51.1066 49.6053C51.6614 49.6053 52.1905 49.7181 52.6719 49.9222C54.1163 50.5341 55.1319 51.966 55.1319 53.6308C55.1319 55.8504 53.3262 57.6562 51.1066 57.6562ZM60.6836 52.4588L57.3678 52.4587C57.3639 52.4379 57.3589 52.4175 57.3548 52.3968C57.3272 52.2591 57.2954 52.1222 57.2595 51.9864C57.2435 51.927 57.2267 51.8679 57.209 51.809C57.198 51.7724 57.1872 51.7358 57.1757 51.6994C57.156 51.6382 57.1353 51.5772 57.1137 51.5166C57.1022 51.4842 57.0913 51.4513 57.0793 51.4191C57.0531 51.3492 57.0257 51.2799 56.997 51.211C56.988 51.1892 56.9798 51.1669 56.9705 51.1452C56.9318 51.0542 56.891 50.9641 56.8482 50.875C56.8428 50.8639 56.8369 50.8532 56.8315 50.8422C56.7941 50.7656 56.7552 50.6897 56.7148 50.6146C56.6999 50.5871 56.6841 50.5602 56.6689 50.5329C56.6367 50.4749 56.6036 50.4175 56.5696 50.3606C56.5511 50.3297 56.5319 50.2995 56.5128 50.2689C56.4605 50.1846 56.4061 50.1016 56.3495 50.0201C56.2939 49.9395 56.2365 49.8602 56.1773 49.7821C56.1403 49.7337 56.1026 49.6858 56.0643 49.6385C56.0414 49.6102 56.0189 49.5819 55.9956 49.554C55.9539 49.5043 55.9114 49.4553 55.8682 49.4069C55.8469 49.383 55.8262 49.3585 55.8045 49.3349C55.7507 49.2763 55.6958 49.2188 55.6398 49.1623C55.6278 49.1501 55.6163 49.1374 55.6041 49.1253C55.535 49.0563 55.4644 48.989 55.3922 48.9233C55.3769 48.9092 55.3608 48.896 55.3452 48.882C55.2887 48.8315 55.2316 48.7815 55.1732 48.7329C55.1476 48.7116 55.1213 48.6912 55.0954 48.6704C55.046 48.6304 54.996 48.5911 54.9455 48.5525C54.9157 48.53 54.8856 48.5081 54.8555 48.4861C54.7281 48.3927 54.5972 48.3043 54.463 48.221C54.4302 48.2004 54.3973 48.1802 54.364 48.1602C54.3121 48.1292 54.2596 48.0993 54.2068 48.0698C54.1743 48.0516 54.1419 48.0331 54.1091 48.0155C54.0517 47.9847 53.9935 47.9553 53.935 47.9262C53.9059 47.9117 53.8772 47.8966 53.8479 47.8826C53.7713 47.8461 53.694 47.8111 53.616 47.7776C53.6041 47.7725 53.5923 47.7667 53.5803 47.7616C53.4896 47.7233 53.398 47.6871 53.3056 47.6531C53.2792 47.6433 53.2524 47.6348 53.2258 47.6254C53.1594 47.602 53.093 47.5789 53.0257 47.5575C52.9905 47.5464 52.9548 47.5363 52.9193 47.5258C52.8597 47.5081 52.7999 47.4906 52.7396 47.4746C52.7009 47.4643 52.662 47.4549 52.623 47.4453C52.5245 47.421 52.4254 47.3992 52.3259 47.3798C52.2669 47.3684 52.2078 47.3578 52.1485 47.348C52.1078 47.3413 52.0671 47.3345 52.0262 47.3287C51.9646 47.3199 51.9028 47.3121 51.841 47.3051C51.8017 47.3006 51.7626 47.2956 51.7231 47.2919C51.6545 47.2856 51.5859 47.2803 51.5172 47.2762C51.4835 47.2741 51.4503 47.271 51.4165 47.2694C51.3132 47.2643 51.2098 47.2617 51.1064 47.2615C51.0025 47.2615 50.8991 47.2645 50.7964 47.2694C50.7626 47.271 50.7292 47.2741 50.6956 47.2762C50.6268 47.2806 50.5581 47.2853 50.4899 47.2919C50.4503 47.2958 50.4112 47.3007 50.3718 47.3052C50.3099 47.3124 50.2482 47.3199 50.1869 47.3288C50.1459 47.3348 50.105 47.3415 50.0642 47.3483C49.9641 47.3649 49.8644 47.3838 49.7651 47.4049C49.7068 47.4175 49.6486 47.431 49.5906 47.4453C49.5512 47.4549 49.512 47.4645 49.473 47.4748C49.4132 47.4906 49.354 47.5079 49.295 47.5254C49.2589 47.5362 49.2225 47.5464 49.1867 47.5578C49.121 47.5788 49.0556 47.601 48.9906 47.6242C48.9627 47.6341 48.9345 47.6431 48.9067 47.6534C48.8146 47.6874 48.7234 47.7233 48.6334 47.7613C48.6185 47.7677 48.604 47.7747 48.5891 47.7812C48.514 47.8136 48.4395 47.847 48.3659 47.8822C48.3348 47.897 48.3045 47.913 48.2737 47.9283C48.2172 47.9566 48.1607 47.9849 48.1051 48.0147C48.0708 48.0331 48.0369 48.0524 48.003 48.0715C47.9518 48.1001 47.901 48.1293 47.8506 48.1592C47.7321 48.2304 47.6158 48.3051 47.5019 48.3833C47.4545 48.416 47.4076 48.4494 47.3611 48.4835C47.3291 48.5068 47.297 48.53 47.2655 48.5539C47.2173 48.5904 47.1701 48.6281 47.123 48.6659C47.0946 48.6888 47.0659 48.711 47.0379 48.7343C46.9838 48.7795 46.9308 48.826 46.8782 48.8727C46.8586 48.8901 46.8386 48.9069 46.8193 48.9244C46.7481 48.9892 46.6785 49.0556 46.6104 49.1235C46.5932 49.1406 46.5769 49.1587 46.5598 49.176C46.5093 49.2276 46.4591 49.2795 46.4103 49.3328C46.3859 49.3595 46.3623 49.387 46.3384 49.414C46.2982 49.4594 46.2583 49.5049 46.2194 49.5514C46.1941 49.5817 46.1694 49.6126 46.1447 49.6434C46.1086 49.6881 46.073 49.7331 46.0381 49.7788C45.9544 49.889 45.8742 50.0018 45.7975 50.1169C45.7655 50.165 45.7346 50.2137 45.704 50.2627C45.683 50.2962 45.6618 50.3296 45.6415 50.3635C45.6099 50.4161 45.5796 50.4695 45.5496 50.5232C45.5321 50.5545 45.5139 50.5854 45.4968 50.6172C45.4607 50.684 45.4264 50.752 45.3927 50.8202C45.3832 50.8394 45.373 50.858 45.3638 50.8774C45.3216 50.965 45.2815 51.0536 45.2434 51.143C45.2318 51.1703 45.2214 51.1982 45.2102 51.2258C45.1843 51.2889 45.1587 51.3523 45.1348 51.4165C45.1214 51.4524 45.1094 51.4887 45.0966 51.5247C45.0764 51.5817 45.057 51.6389 45.0384 51.6964C45.0258 51.7355 45.0142 51.7751 45.0024 51.8146C44.9736 51.911 44.9471 52.008 44.923 52.1056C44.9091 52.162 44.8961 52.2187 44.8837 52.2758C44.8746 52.3171 44.8657 52.3585 44.8575 52.4001C44.8537 52.4198 44.8489 52.4391 44.8452 52.4588L26.4241 52.4585C26.4202 52.4382 26.4154 52.4181 26.4114 52.3979C26.4035 52.3578 26.3949 52.3181 26.3863 52.2783C26.3523 52.1215 26.3122 51.9659 26.2662 51.8122C26.2548 51.774 26.2435 51.7358 26.2314 51.6978C26.2124 51.6389 26.1926 51.5804 26.1719 51.5221C26.1596 51.4872 26.1477 51.452 26.1348 51.4174C26.1104 51.3522 26.0848 51.2875 26.0581 51.2232C26.0473 51.1967 26.0372 51.1697 26.026 51.1435C25.9878 51.0538 25.9476 50.965 25.9053 50.8771C25.8967 50.8594 25.8873 50.8423 25.8787 50.8247C25.8444 50.7548 25.8089 50.6855 25.772 50.6169C25.7554 50.5859 25.7376 50.5556 25.7203 50.525C25.6899 50.4707 25.6593 50.4166 25.6273 50.3634C25.6071 50.3297 25.5862 50.2968 25.5654 50.2636C25.5347 50.2143 25.5034 50.1654 25.4713 50.1169C25.3946 50.0019 25.3144 49.8893 25.2309 49.7792C25.196 49.7335 25.1604 49.6885 25.1243 49.6438C25.0995 49.613 25.0748 49.582 25.0494 49.5516C25.0105 49.5055 24.971 49.4598 24.9309 49.4147C24.9067 49.3876 24.883 49.3599 24.8585 49.3331C24.8103 49.2803 24.7606 49.2289 24.7105 49.1778C24.693 49.1599 24.6762 49.1413 24.6584 49.1238C24.5904 49.0559 24.5209 48.9897 24.4499 48.925C24.4302 48.907 24.4096 48.89 24.3897 48.8722C24.3376 48.8255 24.2848 48.7798 24.2312 48.7349C24.2029 48.7114 24.1738 48.6888 24.1451 48.6657C24.0985 48.6282 24.0516 48.5908 24.0038 48.5546C23.972 48.5304 23.9397 48.5071 23.9075 48.4836C23.8612 48.4497 23.8145 48.4165 23.7674 48.3838C23.6868 48.3285 23.6049 48.2749 23.5219 48.2232C23.4875 48.2016 23.4528 48.1803 23.418 48.1594C23.3679 48.1296 23.3174 48.1006 23.2666 48.0722C23.2323 48.053 23.1982 48.0336 23.1635 48.0151C23.1082 47.9856 23.0525 47.957 22.9963 47.9293C22.9651 47.9137 22.9343 47.8975 22.9028 47.8824C22.8301 47.8478 22.7567 47.8146 22.6827 47.7827C22.6669 47.7758 22.6514 47.7683 22.6355 47.7615C22.5454 47.7234 22.4544 47.6875 22.3626 47.6536C22.3343 47.6432 22.3056 47.6341 22.2771 47.624C22.2127 47.601 22.1478 47.579 22.0826 47.558C22.0465 47.5465 22.0098 47.5362 21.9734 47.5254C21.9146 47.5078 21.8556 47.491 21.7963 47.4751C21.7571 47.4646 21.7176 47.455 21.6781 47.4454C21.5217 47.4067 21.3639 47.3743 21.2049 47.3484C21.1641 47.3417 21.1233 47.3349 21.0822 47.3289C21.0206 47.3202 20.9589 47.3123 20.8971 47.3054C20.8579 47.3008 20.8187 47.2959 20.7792 47.292C20.7107 47.2857 20.6421 47.2805 20.5734 47.2763C20.5397 47.2742 20.5064 47.2711 20.4727 47.2695C20.3694 47.2644 20.266 47.2618 20.1626 47.2617C20.0587 47.2617 19.9554 47.2646 19.8525 47.2695C19.8188 47.2711 19.7854 47.2742 19.7517 47.2763C19.683 47.2808 19.6143 47.2854 19.5461 47.292C19.5065 47.2959 19.4672 47.3008 19.4278 47.3054C19.3662 47.3123 19.3046 47.3202 19.2432 47.3289C19.2019 47.3349 19.161 47.3417 19.1201 47.3484C19.02 47.3648 18.9203 47.3837 18.8212 47.405C18.763 47.4175 18.7053 47.431 18.6476 47.4452C18.6079 47.4549 18.568 47.4646 18.5287 47.4751C18.4698 47.4909 18.4112 47.5076 18.3529 47.5251C18.3161 47.536 18.2791 47.5465 18.2425 47.558C18.178 47.5784 18.1143 47.6007 18.0507 47.6231C18.0212 47.6334 17.9916 47.6429 17.9624 47.6536C17.8708 47.6875 17.7801 47.7231 17.6905 47.761C17.6724 47.7687 17.6547 47.7773 17.6366 47.7851C17.565 47.8162 17.4938 47.8481 17.4235 47.8817C17.3907 47.8974 17.3585 47.9143 17.326 47.9306C17.2712 47.9577 17.2168 47.9855 17.1628 48.0142C17.1272 48.0333 17.0922 48.0534 17.0569 48.0732C17.0072 48.1011 16.9576 48.1292 16.9088 48.1585C16.8252 48.2086 16.7427 48.2604 16.6614 48.3141C16.6262 48.3373 16.5913 48.3608 16.5566 48.3847C16.5107 48.4163 16.4655 48.4488 16.4203 48.4816C16.3869 48.506 16.3533 48.5302 16.3204 48.5553C16.2743 48.5903 16.2291 48.6263 16.184 48.6625C16.1536 48.6869 16.1229 48.7107 16.0932 48.7356C16.0424 48.7778 15.993 48.8214 15.9436 48.8651C15.9207 48.8854 15.8972 48.9051 15.8745 48.9257C15.8043 48.9898 15.7355 49.0554 15.6681 49.1225C15.6473 49.1433 15.6273 49.1651 15.6067 49.1862C15.56 49.2342 15.5134 49.2822 15.4682 49.3315C15.4418 49.3602 15.4165 49.3899 15.3907 49.4191C15.3525 49.4623 15.3144 49.5056 15.2775 49.5499C15.2508 49.5817 15.2248 49.6143 15.1988 49.6468C15.1641 49.6897 15.13 49.7331 15.0965 49.777C15.0376 49.8544 14.9804 49.9332 14.925 50.0132C14.9007 50.0482 14.8767 50.0835 14.8531 50.1189C14.8223 50.1653 14.7925 50.2123 14.7628 50.2594C14.7408 50.2946 14.7187 50.3295 14.6973 50.3651C14.667 50.4156 14.638 50.467 14.6091 50.5183C14.5903 50.5517 14.571 50.5847 14.5527 50.6185C14.519 50.6817 14.4863 50.7454 14.4546 50.8097C14.4432 50.8327 14.431 50.8552 14.4198 50.8784C14.3781 50.9651 14.3384 51.0529 14.3005 51.1417C14.2876 51.172 14.2762 51.2028 14.2637 51.2333C14.2391 51.2936 14.2146 51.354 14.1919 51.4151C14.178 51.4525 14.1653 51.4904 14.1521 51.5281C14.1326 51.5835 14.1134 51.639 14.0955 51.695C14.0826 51.7352 14.0706 51.7757 14.0585 51.8163C14.0423 51.871 14.0264 51.9258 14.0116 51.9811C13.9855 52.0781 13.9618 52.1757 13.9407 52.2739C13.9315 52.3161 13.9224 52.3581 13.9141 52.4007C13.9103 52.4199 13.9056 52.4389 13.902 52.4581H8.67952C7.92999 52.4581 7.32026 51.8484 7.32026 51.0987V45.0004C7.31869 44.2451 7.57146 43.5113 8.03784 42.9171C8.50422 42.323 9.15705 41.9032 9.89112 41.7254C10.559 41.5621 11.1326 41.376 11.601 41.1705H54.1626C54.8097 41.1705 55.3344 40.6458 55.3344 39.9986C55.3344 39.3515 54.8097 38.8267 54.1626 38.8267H28.9758V17.6365C28.9758 16.2133 30.1339 15.0552 31.5571 15.0552H60.0042C62.2503 15.0552 62.5855 18.2034 62.5855 20.08V50.5567C62.5855 52.2118 61.3939 52.4588 60.6836 52.4588Z" fill="#F1CDB3"/>
<path d="M55.4371 24.8147C55.4372 23.2763 54.3567 21.9863 52.9149 21.6615C52.9226 21.5806 52.9287 21.4992 52.9311 21.4169C52.9579 20.4633 52.6017 19.5567 51.9282 18.864C51.2432 18.1596 50.2866 17.7557 49.3034 17.7557C48.1154 17.7557 47.0573 18.3338 46.3948 19.2239C45.7328 18.3338 44.6738 17.7557 43.4831 17.7557C42.5086 17.7557 41.5586 18.1544 40.8767 18.8498C40.1995 19.5402 39.8367 20.4483 39.8552 21.4064C39.8568 21.4923 39.8627 21.5773 39.8703 21.6618C38.4291 21.987 37.3492 23.2766 37.3492 24.8147C37.3492 26.1163 38.1229 27.2399 39.2341 27.7519C38.4513 28.7206 37.9945 29.9464 37.9945 31.2423C37.9945 34.3028 40.4843 36.7927 43.5448 36.7927C44.5529 36.7927 45.537 36.5172 46.3932 36.0051C47.254 36.5202 48.2384 36.7923 49.2415 36.7927C52.302 36.7927 54.7919 34.3028 54.7919 31.2423C54.7919 29.9462 54.3351 28.7206 53.5523 27.7519C54.6636 27.2399 55.4371 26.1163 55.4371 24.8147ZM49.3034 20.0996C49.6574 20.0996 50.0016 20.2448 50.2478 20.4979C50.4762 20.7328 50.597 21.0357 50.5883 21.3508C50.568 22.0692 49.9856 22.6602 49.2898 22.6682C49.1034 22.668 48.9191 22.6279 48.7495 22.5505C48.7285 22.5408 48.7079 22.5304 48.6868 22.5209C48.58 22.4646 48.4823 22.3927 48.3966 22.3077C48.1518 22.0648 48.0177 21.7384 48.0191 21.3885C48.022 20.6778 48.5982 20.0996 49.3034 20.0996ZM42.5498 20.491C42.6711 20.3665 42.8163 20.2677 42.9766 20.2005C43.1369 20.1332 43.3091 20.0988 43.4829 20.0994C44.1903 20.0994 44.7664 20.6762 44.7672 21.3851C44.7681 21.5579 44.7343 21.7291 44.6678 21.8885C44.6013 22.048 44.5035 22.1925 44.3801 22.3135C44.2964 22.3959 44.2013 22.466 44.0978 22.5217C44.0595 22.5391 44.0221 22.5577 43.9843 22.5758C43.8315 22.6389 43.6675 22.6704 43.5023 22.6683C42.7969 22.6567 42.212 22.0704 42.1983 21.3613C42.192 21.0374 42.3169 20.7285 42.5498 20.491ZM39.693 24.8148C39.6929 24.3245 40.0918 23.9257 40.5818 23.9257C41.0722 23.9257 41.4709 24.3245 41.4709 24.8148C41.4709 24.9155 41.4534 25.0118 41.4224 25.1022C41.3931 25.1611 41.3649 25.2207 41.3377 25.2808C41.1809 25.5341 40.9012 25.7038 40.582 25.7038C40.0918 25.7038 39.693 25.305 39.693 24.8148ZM49.2415 34.4492C48.4765 34.4489 47.7368 34.175 47.1561 33.6769C46.9438 33.4945 46.6731 33.3943 46.3932 33.3946C46.1133 33.3944 45.8426 33.4946 45.6303 33.6769C45.0496 34.175 44.3099 34.4489 43.5448 34.4492C41.7767 34.4492 40.3382 33.0107 40.3382 31.2426C40.3382 29.9023 41.1833 28.6919 42.4409 28.2307C42.6472 28.1551 42.8281 28.023 42.9629 27.8495C43.0977 27.676 43.181 27.4681 43.2033 27.2495C43.2362 26.9273 43.3176 26.6118 43.4447 26.3139C43.4865 26.2346 43.5256 26.1537 43.5608 26.0707C43.8716 25.4851 44.3571 25.0108 44.9498 24.7136C45.0008 24.6912 45.0511 24.6676 45.1011 24.6428C45.5085 24.4648 45.9485 24.3731 46.3932 24.3737C46.8513 24.3737 47.2875 24.4692 47.6828 24.6417C47.7327 24.6665 47.7831 24.6899 47.8341 24.7123C48.4279 25.0094 48.9143 25.4843 49.2256 26.0707C49.2608 26.1537 49.2999 26.2346 49.3416 26.3139C49.4688 26.6118 49.5502 26.9273 49.583 27.2495C49.6053 27.4681 49.6886 27.676 49.8235 27.8495C49.9583 28.023 50.1391 28.1551 50.3454 28.2307C51.6031 28.692 52.4481 29.9023 52.4481 31.2426C52.4481 33.0106 51.0097 34.4492 49.2415 34.4492ZM52.2045 25.7038C51.8853 25.7038 51.6056 25.5341 51.4488 25.2808C51.4216 25.2208 51.3933 25.1612 51.364 25.1022C51.3321 25.0097 51.3157 24.9126 51.3155 24.8148C51.3155 24.3245 51.7143 23.9257 52.2046 23.9257C52.6948 23.9257 53.0936 24.3245 53.0936 24.8148C53.0935 25.3049 52.6947 25.7038 52.2045 25.7038Z" fill="#F1CDB3"/>
<path d="M60.0193 39.7758C60.0043 39.7007 59.9819 39.6273 59.9526 39.5566C59.9234 39.4857 59.8873 39.4178 59.8448 39.3539C59.8026 39.2897 59.7539 39.23 59.6995 39.1758C59.6452 39.1214 59.5856 39.0727 59.5214 39.0305C59.3933 38.9457 59.25 38.8864 59.0995 38.8559C58.9487 38.8254 58.7933 38.8254 58.6425 38.8559C58.5675 38.8712 58.4936 38.8934 58.4221 38.9227C58.3518 38.952 58.2839 38.9884 58.2206 39.0305C58.1561 39.0727 58.0964 39.1219 58.0425 39.1758C57.9884 39.2297 57.9392 39.2895 57.896 39.3539C57.8538 39.4172 57.8173 39.4852 57.7893 39.5566C57.76 39.627 57.7366 39.7008 57.7225 39.7758C57.7073 39.8508 57.6991 39.9281 57.6991 40.0043C57.6991 40.0803 57.7073 40.1578 57.7225 40.234C57.7366 40.3078 57.76 40.3816 57.7893 40.4531C57.8186 40.5234 57.855 40.5914 57.8971 40.6547C57.9392 40.7191 57.9884 40.7789 58.0425 40.8328C58.0964 40.8867 58.1561 40.9359 58.2206 40.9793C58.2839 41.0215 58.3518 41.0566 58.4221 41.0859C58.4936 41.1152 58.5675 41.1387 58.6425 41.1527C58.7176 41.168 58.7949 41.1762 58.871 41.1762C58.9471 41.1762 59.0246 41.168 59.0995 41.1527C59.1745 41.1387 59.2483 41.1152 59.3186 41.0859C59.3901 41.0566 59.4581 41.0215 59.5214 40.9793C59.5859 40.9359 59.6457 40.8867 59.6995 40.8328C59.7534 40.7789 59.8026 40.7191 59.8448 40.6547C59.8869 40.5914 59.9233 40.5234 59.9526 40.4531C59.9819 40.3816 60.0041 40.3078 60.0193 40.234C60.0346 40.1578 60.0427 40.0803 60.0427 40.0043C60.0427 39.9281 60.0346 39.8508 60.0193 39.7758Z" fill="#F1CDB3"/>
<path d="M46.3932 0C45.7461 0 45.2213 0.524648 45.2213 1.17188V3.13359C45.2213 3.78082 45.7461 4.30547 46.3932 4.30547C47.0404 4.30547 47.565 3.7807 47.565 3.13359V1.17188C47.565 0.524648 47.0404 0 46.3932 0Z" fill="#F1CDB3"/>
<path d="M41.4562 4.55659L39.8205 3.27234C39.6995 3.1773 39.5609 3.10703 39.4127 3.06555C39.2645 3.02407 39.1096 3.01218 38.9568 3.03057C38.804 3.04896 38.6563 3.09727 38.5222 3.17273C38.3881 3.24819 38.2701 3.34934 38.1751 3.47038C37.7755 3.97944 37.8642 4.71609 38.3731 5.11569L40.0088 6.39995C40.2149 6.56221 40.4695 6.65035 40.7318 6.65015C40.9095 6.65039 41.0849 6.61017 41.2447 6.53253C41.4046 6.45488 41.5446 6.34186 41.6543 6.20202C42.054 5.69284 41.9653 4.9562 41.4562 4.55659Z" fill="#F1CDB3"/>
<path d="M54.6113 3.47021C54.2117 2.96115 53.4752 2.87244 52.9659 3.27216L51.3302 4.55642C50.8211 4.95603 50.7324 5.69267 51.1321 6.20185C51.2417 6.34177 51.3818 6.45487 51.5416 6.53254C51.7015 6.61021 51.8769 6.65042 52.0546 6.6501C52.3169 6.65028 52.5716 6.56214 52.7776 6.3999L54.4133 5.11564C54.9224 4.71603 55.0111 3.97939 54.6113 3.47021Z" fill="#F1CDB3"/>
</g>
<defs>
<filter id="filter0_d_151_162" x="0.976501" y="0" width="67.9529" height="68" filterUnits="userSpaceOnUse" color-interpolation-filters="sRGB">
<feFlood flood-opacity="0" result="BackgroundImageFix"/>
<feColorMatrix in="SourceAlpha" type="matrix" values="0 0 0 0 0 0 0 0 0 0 0 0 0 0 0 0 0 0 127 0" result="hardAlpha"/>
<feOffset dy="4"/>
<feGaussianBlur stdDeviation="2"/>
<feComposite in2="hardAlpha" operator="out"/>
<feColorMatrix type="matrix" values="0 0 0 0 0 0 0 0 0 0 0 0 0 0 0 0 0 0 0.25 0"/>
<feBlend mode="normal" in2="BackgroundImageFix" result="effect1_dropShadow_151_162"/>
<feBlend mode="normal" in="SourceGraphic" in2="effect1_dropShadow_151_162" result="shape"/>
</filter>
</defs>
</svg>
